<?xml version="1.0" encoding="UTF-8"?>
<svg width="123px" height="155px" viewBox="0 0 123 155" version="1.1" xmlns="http://www.w3.org/2000/svg" xmlns:xlink="http://www.w3.org/1999/xlink">
    <!-- Generator: Sketch 51.3 (57544) - http://www.bohemiancoding.com/sketch -->
    <title>Group</title>
    <desc>Created with Sketch.</desc>
    <defs>
        <polygon id="path-1" points="0 0 88 0 88 88 0 88"></polygon>
        <polygon id="path-3" points="0 0 89 0 89 88 0 88"></polygon>
    </defs>
    <g id="App" stroke="none" stroke-width="1" fill="none" fill-rule="evenodd">
        <g id="Login" transform="translate(-127.000000, -112.000000)">
            <g id="Group" transform="translate(127.000000, 112.000000)">
                <g id="Group-7">
                    <g id="Group-3">
                        <mask id="mask-2" fill="white">
                            <use xlink:href="#path-1"></use>
                        </mask>
                        <g id="Clip-2"></g>
                        <path d="M26.6801213,72 C20.7909051,72 16,67.2090949 16,61.3198787 C16,55.4313925 20.7909051,50.6400007 26.6801213,50.6400007 L45.3005484,50.6400007 C48.2496589,50.6400007 50.6402441,48.2491721 50.6402441,45.3003051 L50.6402441,26.6796346 C50.6402441,20.7909051 55.4318792,16 61.3203654,16 C67.2090949,16 72,20.7909051 72,26.6796346 L72,72 L26.6801213,72 Z M34.6247533,26.6873801 L34.6247533,34.6242668 L26.6881099,34.6242668 C11.948386,34.6242668 0,46.5726527 0,61.3116469 C0,76.050641 11.948386,88 26.6881099,88 L78.3926891,88 C83.6980556,88 88,83.6980556 88,78.3919594 L88,26.6873801 C88,11.9481427 76.0518573,0 61.3123766,0 C46.5736258,0 34.6247533,11.9481427 34.6247533,26.6873801 Z" id="Fill-1" fill="#FF545C" mask="url(#mask-2)"></path>
                    </g>
                    <g id="Group-6" transform="translate(34.000000, 35.000000)">
                        <mask id="mask-4" fill="white">
                            <use xlink:href="#path-3"></use>
                        </mask>
                        <g id="Clip-5"></g>
                        <path d="M62.0090336,0 L53.9819328,0 L53.9819328,16.0127156 L62.0090336,16.0127156 C67.9624421,16.0127156 72.8058138,20.8016674 72.8058138,26.6874539 C72.8058138,32.5739701 67.9624421,37.3626787 62.0090336,37.3626787 L53.9819328,37.3626787 L53.9819328,43.7678136 C53.9819328,49.0739245 49.6310907,53.3758808 44.2654211,53.3758808 L37.7870085,53.3758808 L37.7870085,61.3120596 C37.7870085,67.1988191 32.9438828,71.9875277 26.9909664,71.9875277 C21.038296,71.9875277 16.1944322,67.1988191 16.1944322,61.3120596 L16.1944322,53.3758808 L0,53.3758808 L0,61.3120596 C0,76.0510945 12.0846885,88 26.9909664,88 C41.8979824,88 53.9819328,76.0510945 53.9819328,61.3120596 L53.9819328,53.3758808 L62.0090336,53.3758808 C76.9155575,53.3758808 89,41.4272185 89,26.6874539 C89,11.9489055 76.9155575,0 62.0090336,0" id="Fill-4" fill="#90CF00" mask="url(#mask-4)"></path>
                    </g>
                </g>
                <path d="M28.38,153.8 C27.7079966,153.517332 27.1586688,153.109336 26.732,152.576 L28.46,150.528 C29.0573363,151.306671 29.7026632,151.696 30.396,151.696 C30.854669,151.696 31.2039988,151.557335 31.444,151.28 C31.6840012,151.002665 31.804,150.597336 31.804,150.064 L31.804,145.248 L27.932,145.248 L27.932,142.8 L34.94,142.8 L34.94,149.872 C34.94,151.322674 34.5746703,152.410663 33.844,153.136 C33.1133297,153.861337 32.0386738,154.224 30.62,154.224 C29.7986626,154.224 29.0520034,154.082668 28.38,153.8 Z M39.54,153.472 C38.5959953,152.970664 37.8546694,152.277338 37.316,151.392 C36.7773306,150.506662 36.508,149.509339 36.508,148.4 C36.508,147.290661 36.7773306,146.293338 37.316,145.408 C37.8546694,144.522662 38.5959953,143.829336 39.54,143.328 C40.4840047,142.826664 41.5479941,142.576 42.732,142.576 C43.9160059,142.576 44.9799953,142.826664 45.924,143.328 C46.8680047,143.829336 47.6093306,144.522662 48.148,145.408 C48.6866694,146.293338 48.956,147.290661 48.956,148.4 C48.956,149.509339 48.6866694,150.506662 48.148,151.392 C47.6093306,152.277338 46.8680047,152.970664 45.924,153.472 C44.9799953,153.973336 43.9160059,154.224 42.732,154.224 C41.5479941,154.224 40.4840047,153.973336 39.54,153.472 Z M44.268,151.2 C44.726669,150.933332 45.089332,150.557336 45.356,150.072 C45.622668,149.586664 45.756,149.029336 45.756,148.4 C45.756,147.770664 45.622668,147.213336 45.356,146.728 C45.089332,146.242664 44.726669,145.866668 44.268,145.6 C43.809331,145.333332 43.2973362,145.2 42.732,145.2 C42.1666638,145.2 41.654669,145.333332 41.196,145.6 C40.737331,145.866668 40.374668,146.242664 40.108,146.728 C39.841332,147.213336 39.708,147.770664 39.708,148.4 C39.708,149.029336 39.841332,149.586664 40.108,150.072 C40.374668,150.557336 40.737331,150.933332 41.196,151.2 C41.654669,151.466668 42.1666638,151.6 42.732,151.6 C43.2973362,151.6 43.809331,151.466668 44.268,151.2 Z M53.044,153.48 C52.110662,152.983998 51.377336,152.293338 50.844,151.408 C50.310664,150.522662 50.044,149.520006 50.044,148.4 C50.044,147.279994 50.310664,146.277338 50.844,145.392 C51.377336,144.506662 52.110662,143.816002 53.044,143.32 C53.977338,142.823998 55.0306608,142.576 56.204,142.576 C57.2280051,142.576 58.1506626,142.757332 58.972,143.12 C59.7933374,143.482668 60.4759973,144.00533 61.02,144.688 L59.004,146.512 C58.278663,145.637329 57.3986718,145.2 56.364,145.2 C55.755997,145.2 55.214669,145.333332 54.74,145.6 C54.265331,145.866668 53.8973346,146.242664 53.636,146.728 C53.3746654,147.213336 53.244,147.770664 53.244,148.4 C53.244,149.029336 53.3746654,149.586664 53.636,150.072 C53.8973346,150.557336 54.265331,150.933332 54.74,151.2 C55.214669,151.466668 55.755997,151.6 56.364,151.6 C57.3986718,151.6 58.278663,151.162671 59.004,150.288 L61.02,152.112 C60.4759973,152.79467 59.7933374,153.317332 58.972,153.68 C58.1506626,154.042668 57.2280051,154.224 56.204,154.224 C55.0306608,154.224 53.977338,153.976002 53.044,153.48 Z M64.884,153.472 C63.9399953,152.970664 63.1986694,152.277338 62.66,151.392 C62.1213306,150.506662 61.852,149.509339 61.852,148.4 C61.852,147.290661 62.1213306,146.293338 62.66,145.408 C63.1986694,144.522662 63.9399953,143.829336 64.884,143.328 C65.8280047,142.826664 66.8919941,142.576 68.076,142.576 C69.2600059,142.576 70.3239953,142.826664 71.268,143.328 C72.2120047,143.829336 72.9533306,144.522662 73.492,145.408 C74.0306694,146.293338 74.3,147.290661 74.3,148.4 C74.3,149.509339 74.0306694,150.506662 73.492,151.392 C72.9533306,152.277338 72.2120047,152.970664 71.268,153.472 C70.3239953,153.973336 69.2600059,154.224 68.076,154.224 C66.8919941,154.224 65.8280047,153.973336 64.884,153.472 Z M69.612,151.2 C70.070669,150.933332 70.433332,150.557336 70.7,150.072 C70.966668,149.586664 71.1,149.029336 71.1,148.4 C71.1,147.770664 70.966668,147.213336 70.7,146.728 C70.433332,146.242664 70.070669,145.866668 69.612,145.6 C69.153331,145.333332 68.6413362,145.2 68.076,145.2 C67.5106638,145.2 66.998669,145.333332 66.54,145.6 C66.081331,145.866668 65.718668,146.242664 65.452,146.728 C65.185332,147.213336 65.052,147.770664 65.052,148.4 C65.052,149.029336 65.185332,149.586664 65.452,150.072 C65.718668,150.557336 66.081331,150.933332 66.54,151.2 C66.998669,151.466668 67.5106638,151.6 68.076,151.6 C68.6413362,151.6 69.153331,151.466668 69.612,151.2 Z M77.26,153.888 C76.4066624,153.663999 75.713336,153.365335 75.18,152.992 L76.22,150.656 C76.7213358,150.986668 77.3026634,151.253332 77.964,151.456 C78.6253366,151.658668 79.2759968,151.76 79.916,151.76 C81.1320061,151.76 81.74,151.456003 81.74,150.848 C81.74,150.527998 81.5666684,150.290667 81.22,150.136 C80.8733316,149.981333 80.3160038,149.818668 79.548,149.648 C78.7053291,149.466666 78.0013362,149.272001 77.436,149.064 C76.8706638,148.855999 76.3853354,148.522669 75.98,148.064 C75.5746646,147.605331 75.372,146.986671 75.372,146.208 C75.372,145.52533 75.5586648,144.909336 75.932,144.36 C76.3053352,143.810664 76.862663,143.376002 77.604,143.056 C78.345337,142.735998 79.2546613,142.576 80.332,142.576 C81.0680037,142.576 81.7933298,142.658666 82.508,142.824 C83.2226702,142.989334 83.8519973,143.231998 84.396,143.552 L83.42,145.904 C82.353328,145.327997 81.3186717,145.04 80.316,145.04 C79.6866635,145.04 79.2280014,145.133332 78.94,145.32 C78.6519986,145.506668 78.508,145.749332 78.508,146.048 C78.508,146.346668 78.678665,146.570666 79.02,146.72 C79.361335,146.869334 79.9106629,147.023999 80.668,147.184 C81.5213376,147.365334 82.2279972,147.559999 82.788,147.768 C83.3480028,147.976001 83.8333313,148.306664 84.244,148.76 C84.6546687,149.213336 84.86,149.829329 84.86,150.608 C84.86,151.280003 84.6733352,151.887997 84.3,152.432 C83.9266648,152.976003 83.3666704,153.410665 82.62,153.736 C81.8733296,154.061335 80.966672,154.224 79.9,154.224 C78.9933288,154.224 78.1133376,154.112001 77.26,153.888 Z M95.308,151.552 L95.308,154 L86.316,154 L86.316,142.8 L95.1,142.8 L95.1,145.248 L89.452,145.248 L89.452,147.136 L94.428,147.136 L94.428,149.504 L89.452,149.504 L89.452,151.552 L95.308,151.552 Z" id="JOCOSE-Copy" fill="#FF545C"></path>
            </g>
        </g>
    </g>
</svg>