<svg xmlns="http://www.w3.org/2000/svg" xmlns:xlink="http://www.w3.org/1999/xlink" viewBox="0 0 161 151"><defs><style>.cls-1{isolation:isolate;}.cls-2{fill:url(#linear-gradient);}.cls-3{mix-blend-mode:multiply;fill:url(#linear-gradient-2);}.cls-4{fill:url(#linear-gradient-3);}.cls-5{fill:url(#linear-gradient-4);}</style><linearGradient id="linear-gradient" x1="143.13" y1="26.53" x2="16.2" y2="81.15" gradientUnits="userSpaceOnUse"><stop offset="0" stop-color="#fd7f20"/><stop offset="1" stop-color="#fc2e20"/></linearGradient><linearGradient id="linear-gradient-2" x1="23.78" y1="27.9" x2="83.23" y2="87.35" gradientUnits="userSpaceOnUse"><stop offset="0" stop-color="#d4145a"/><stop offset="1" stop-color="#fff"/></linearGradient><linearGradient id="linear-gradient-3" x1="109.78" y1="-22.17" x2="-81.41" y2="219.62" xlink:href="#linear-gradient"/><linearGradient id="linear-gradient-4" x1="121.44" y1="38.34" x2="156.64" y2="38.34" gradientUnits="userSpaceOnUse"><stop offset="0" stop-color="#fc2e20"/><stop offset="1" stop-color="#fd7f20"/></linearGradient></defs><title>Isotipo-final</title><g class="cls-1"><g id="Layer_1" data-name="Layer 1"><path class="cls-2" d="M58.73,117.23A54.38,54.38,0,1,0,4.34,62.85,54.44,54.44,0,0,0,58.73,117.23Zm0-73.24A18.86,18.86,0,1,1,39.87,62.85,18.88,18.88,0,0,1,58.73,44Z"/><path class="cls-3" d="M58.73,117.23A54.38,54.38,0,1,0,4.34,62.85,54.44,54.44,0,0,0,58.73,117.23Zm0-73.24A18.86,18.86,0,1,1,39.87,62.85,18.88,18.88,0,0,1,58.73,44Z"/><path class="cls-4" d="M22.11,145a17.76,17.76,0,0,0,17.76-17.76V62.85A54.46,54.46,0,0,1,76.49,11.46,54.35,54.35,0,0,0,4.74,56.39a17.78,17.78,0,0,0-.4,3.74v67.11A17.77,17.77,0,0,0,22.11,145Z"/><path class="cls-5" d="M121.44,33.59a1.78,1.78,0,0,1,2-2h8.37V22.75q0-2,2.19-2h10.24a1.78,1.78,0,0,1,2,2v8.83h8.37a2.08,2.08,0,0,1,1.42.52,1.91,1.91,0,0,1,.59,1.49v9.28a2.44,2.44,0,0,1-.55,1.44,1.71,1.71,0,0,1-1.46.75h-8.37v8.87a2.11,2.11,0,0,1-.5,1.42,1.87,1.87,0,0,1-1.51.6H134a2.5,2.5,0,0,1-1.44-.55,1.74,1.74,0,0,1-.75-1.47V45.06h-8.37q-2,0-2-2.19Z"/></g></g></svg>