<svg id="Layer_1" data-name="Layer 1" xmlns="http://www.w3.org/2000/svg" xmlns:xlink="http://www.w3.org/1999/xlink" viewBox="0 0 424 102"><defs><style>.cls-1{fill:url(#linear-gradient);}.cls-2{fill:url(#linear-gradient-2);}.cls-3{fill:url(#linear-gradient-3);}.cls-4{fill:url(#linear-gradient-4);}.cls-5{fill:url(#linear-gradient-5);}.cls-6{fill:url(#linear-gradient-6);}</style><linearGradient id="linear-gradient" x1="37.91" y1="97.5" x2="37.91" y2="12.51" gradientUnits="userSpaceOnUse"><stop offset="0" stop-color="#fc2e20"/><stop offset="1" stop-color="#fd7f20"/></linearGradient><linearGradient id="linear-gradient-2" x1="116.37" y1="98.82" x2="116.37" y2="23.67" xlink:href="#linear-gradient"/><linearGradient id="linear-gradient-3" x1="205.19" y1="98.82" x2="205.19" y2="3.18" xlink:href="#linear-gradient"/><linearGradient id="linear-gradient-4" x1="292.7" y1="98.64" x2="292.7" y2="23.67" xlink:href="#linear-gradient"/><linearGradient id="linear-gradient-5" x1="352.36" y1="97.5" x2="352.36" y2="3.24" xlink:href="#linear-gradient"/><linearGradient id="linear-gradient-6" x1="396.82" y1="85.08" x2="396.82" y2="41.01" xlink:href="#linear-gradient"/></defs><title>Logotipo-horizontal</title><path class="cls-1" d="M5.14,15.14a2.78,2.78,0,0,1,.63-1.91,2.38,2.38,0,0,1,1.89-.72H44.23a25.07,25.07,0,0,1,7.44,1.09,25.8,25.8,0,0,1,6.41,3,26.36,26.36,0,0,1,5.27,4.58,29.48,29.48,0,0,1,4,5.75,28.91,28.91,0,0,1,2.49,6.5,28.16,28.16,0,0,1-1,17,27.7,27.7,0,0,1-5.29,8.76,27.05,27.05,0,0,1-8.24,6.2A24.23,24.23,0,0,1,44.63,67.8H27.29V95c0,1.64-.88,2.46-2.63,2.46h-17a2.69,2.69,0,0,1-1.83-.6A2.34,2.34,0,0,1,5.14,95Zm43.1,25.07a10.33,10.33,0,0,0-.6-3.43,9.41,9.41,0,0,0-4.52-5.27,7.85,7.85,0,0,0-3.7-.85H27.29V49.77H39.42a8.21,8.21,0,0,0,3.72-.83,8.64,8.64,0,0,0,2.78-2.15,9.51,9.51,0,0,0,1.72-3A10.67,10.67,0,0,0,48.24,40.21Z"/><path class="cls-2" d="M154.86,93.26a5.08,5.08,0,0,1-.35,1.86,4.43,4.43,0,0,1-2.63,2.21,8.09,8.09,0,0,1-1.49.17H139.12a5.09,5.09,0,0,1-2-.32,3,3,0,0,1-1.2-.88,5,5,0,0,1-.77-1.41q-.31-.83-.66-1.8l-1.66-4.29q-1.55,1.55-3.38,3.29a30.81,30.81,0,0,1-4,3.23,23.29,23.29,0,0,1-4.78,2.49,15,15,0,0,1-5.49,1,37.23,37.23,0,0,1-18.92-5.07,36.46,36.46,0,0,1-7.52-5.84A37.3,37.3,0,0,1,79.2,71.32a38.24,38.24,0,0,1-1.32-10.11A37.21,37.21,0,0,1,80.8,46.42a37.6,37.6,0,0,1,8-11.9,36.68,36.68,0,0,1,11.84-8,37.11,37.11,0,0,1,14.6-2.89,19.47,19.47,0,0,1,6.52,1.06,22.28,22.28,0,0,1,5.41,2.78,26.83,26.83,0,0,1,4.41,3.89,43.43,43.43,0,0,1,3.51,4.41l2.24-6.93c.38-.95.69-1.72.94-2.32a4.17,4.17,0,0,1,.8-1.31,2.17,2.17,0,0,1,1.06-.58,8.86,8.86,0,0,1,1.77-.14h8.53a8.09,8.09,0,0,1,1.49.17,2.91,2.91,0,0,1,1.49.8,3.73,3.73,0,0,1,1.14,1.43,4.64,4.64,0,0,1,.35,1.84ZM98.48,61.21a20.94,20.94,0,0,0,1.18,7.07A16.78,16.78,0,0,0,103,74a15.84,15.84,0,0,0,5.23,3.8,16,16,0,0,0,6.79,1.4,17.88,17.88,0,0,0,7.12-1.4,18.16,18.16,0,0,0,5.72-3.8,17.39,17.39,0,0,0,3.81-5.7,18.7,18.7,0,0,0,0-14.05,18.62,18.62,0,0,0-3.81-5.83,18,18,0,0,0-5.72-4A17.41,17.41,0,0,0,115,43a15.6,15.6,0,0,0-6.79,1.46,15.78,15.78,0,0,0-5.23,4,18,18,0,0,0-3.35,5.83A20.88,20.88,0,0,0,98.48,61.21Z"/><path class="cls-3" d="M221,88.63c-1,1-2.17,2.13-3.41,3.32a33.8,33.8,0,0,1-4.09,3.32,22.78,22.78,0,0,1-4.81,2.54,15.08,15.08,0,0,1-5.55,1,34.87,34.87,0,0,1-14.33-2.92,34.37,34.37,0,0,1-11.28-8A36.57,36.57,0,0,1,170.11,76a40.61,40.61,0,0,1-2.66-14.77,40.52,40.52,0,0,1,2.66-14.79,36.64,36.64,0,0,1,7.38-11.9,34,34,0,0,1,11.28-8,35.18,35.18,0,0,1,14.33-2.89,17.21,17.21,0,0,1,5.75.92,21.22,21.22,0,0,1,4.75,2.34,26.31,26.31,0,0,1,4,3.24q1.8,1.8,3.41,3.52V7.53a4.51,4.51,0,0,1,1.11-3.09,4.25,4.25,0,0,1,3.35-1.26H238.3a4.44,4.44,0,0,1,1.57.32,5.28,5.28,0,0,1,1.52.89,4.65,4.65,0,0,1,1.12,1.37,3.77,3.77,0,0,1,.43,1.77V93.09q0,4.41-4.64,4.41H227.08a4.4,4.4,0,0,1-1.77-.29,2.76,2.76,0,0,1-1.06-.83,5.67,5.67,0,0,1-.77-1.37c-.23-.55-.52-1.19-.86-1.92ZM188.05,61.21a20.93,20.93,0,0,0,1.17,7.07,16.78,16.78,0,0,0,3.35,5.7,15.92,15.92,0,0,0,12,5.2,18.1,18.1,0,0,0,6.9-1.31,17.55,17.55,0,0,0,5.63-3.64A18.07,18.07,0,0,0,222.62,62v-.81a18,18,0,0,0-1.38-7,18.42,18.42,0,0,0-3.8-5.83,18,18,0,0,0-5.72-4A17.45,17.45,0,0,0,204.59,43a15.59,15.59,0,0,0-6.78,1.46,15.82,15.82,0,0,0-5.24,4,18,18,0,0,0-3.35,5.83A20.87,20.87,0,0,0,188.05,61.21Z"/><path class="cls-4" d="M320.2,88.8A38.25,38.25,0,0,1,308.86,96a34.61,34.61,0,0,1-13.33,2.6,39,39,0,0,1-27.07-10.78,38.1,38.1,0,0,1-8.36-11.94A36,36,0,0,1,257,61a38.68,38.68,0,0,1,4.72-18.6,37.48,37.48,0,0,1,5.5-7.59,34.55,34.55,0,0,1,7.24-5.92,35.45,35.45,0,0,1,8.7-3.83,34.88,34.88,0,0,1,9.9-1.38,33.73,33.73,0,0,1,9.21,1.26,35.81,35.81,0,0,1,8.39,3.55A37,37,0,0,1,317.85,34a37.86,37.86,0,0,1,5.61,7,34.12,34.12,0,0,1,3.63,8.13,31,31,0,0,1,1.29,8.9c0,2,0,3.6-.09,4.87a5.47,5.47,0,0,1-.88,3,4.34,4.34,0,0,1-2.67,1.54,25.74,25.74,0,0,1-5.46.43H278.07A14.24,14.24,0,0,0,280.39,74a14.57,14.57,0,0,0,4,3.92A16.08,16.08,0,0,0,289.29,80a20.54,20.54,0,0,0,4.87.63,22.32,22.32,0,0,0,4.23-.43A30.71,30.71,0,0,0,302.6,79a23.49,23.49,0,0,0,3.72-1.66,12.5,12.5,0,0,0,2.71-2,12.38,12.38,0,0,1,1.58-1.12,2.77,2.77,0,0,1,1.4-.37,2.7,2.7,0,0,1,1.52.52,11.87,11.87,0,0,1,1.74,1.48l6.07,6.87a3.71,3.71,0,0,1,.8,1.35,4.25,4.25,0,0,1,.17,1.23,3.16,3.16,0,0,1-.63,2A7.32,7.32,0,0,1,320.2,88.8ZM292.67,41.13a10.94,10.94,0,0,0-4.32.88,16.5,16.5,0,0,0-3.92,2.38,19.87,19.87,0,0,0-3.29,3.38,20.26,20.26,0,0,0-2.38,3.83H308a34,34,0,0,0-2.6-4.12,17.38,17.38,0,0,0-3.2-3.32,14,14,0,0,0-4.12-2.23A16.43,16.43,0,0,0,292.67,41.13Z"/><path class="cls-5" d="M341.48,7.59a5.12,5.12,0,0,1,.92-3.09,3.64,3.64,0,0,1,3.15-1.26h14a2.7,2.7,0,0,1,1.2.32,4.18,4.18,0,0,1,1.17.88,4.89,4.89,0,0,1,.92,1.38,4.1,4.1,0,0,1,.37,1.77v85.5A4.21,4.21,0,0,1,362,96.38a4.53,4.53,0,0,1-3.18,1.12H345.55a3.85,3.85,0,0,1-3.15-1.12,5.08,5.08,0,0,1-.92-3.29Z"/><path class="cls-6" d="M374.79,57.09a2.22,2.22,0,0,1,2.52-2.51h10.47v-11c0-1.68.92-2.52,2.75-2.52h12.82a2.23,2.23,0,0,1,2.52,2.52v11h10.47a2.6,2.6,0,0,1,1.77.65,2.35,2.35,0,0,1,.75,1.86V68.71a3.07,3.07,0,0,1-.69,1.8,2.16,2.16,0,0,1-1.83.95H405.87v11.1a2.67,2.67,0,0,1-.63,1.78,2.36,2.36,0,0,1-1.89.74H390.53a3.09,3.09,0,0,1-1.8-.69,2.14,2.14,0,0,1-1-1.83V71.46H377.31c-1.68,0-2.52-.92-2.52-2.75Z"/></svg>