<?xml version="1.0" encoding="UTF-8"?>
<svg width="106px" height="110px" viewBox="0 0 106 110" version="1.1" xmlns="http://www.w3.org/2000/svg" xmlns:xlink="http://www.w3.org/1999/xlink">
    <!-- Generator: Sketch 51.3 (57544) - http://www.bohemiancoding.com/sketch -->
    <title>Group 8 Copy 3</title>
    <desc>Created with Sketch.</desc>
    <defs>
        <polygon id="path-1" points="0.721903904 0.58 79.2045 0.58 79.2045 107.549661 0.721903904 107.549661"></polygon>
    </defs>
    <g id="Usuario" stroke="none" stroke-width="1" fill="none" fill-rule="evenodd">
        <g id="Login" transform="translate(-135.000000, -80.000000)">
            <g id="Group-8-Copy-3" transform="translate(135.000000, 79.000000)">
                <path d="M48.0361,41.9888 L48.0361,80.3408 L45.7841,80.3408 L45.7841,43.3138 C46.5351,42.8618 47.2871,42.4198 48.0361,41.9888" id="Fill-1" fill="white"></path>
                <g id="Group-5" transform="translate(14.000000, 0.420000)">
                    <mask id="mask-2" fill="white">
                        <use xlink:href="#path-1"></use>
                    </mask>
                    <g id="Clip-4"></g>
                    <path d="M5.3975,13.2363 C17.7485,4.3033 58.0835,-6.6877 59.3455,16.4733 C58.3145,28.3423 46.6075,32.0613 37.0845,37.5623 C36.1415,38.1143 35.1675,38.6863 34.1705,39.2743 L34.1705,3.7553 C33.4125,3.8493 32.6495,3.9573 31.8855,4.0803 L31.8855,40.6343 C-31.3475,78.6503 20.1135,114.5833 39.8495,106.3663 C15.5885,107.2823 -6.7295,84.4593 9.7525,61.0273 C16.2725,51.7573 26.8745,44.6353 36.6425,39.2633 C40.6825,37.0413 38.8535,36.8903 44.2535,40.4763 C80.5675,65.1683 73.5735,85.7323 48.6245,103.5243 L49.8705,103.6323 C50.1945,103.5603 50.8615,103.2013 51.0665,103.0933 C87.3775,83.3843 71.6815,53.0233 42.6025,36.4953 C52.6755,30.6323 78.8685,24.4183 79.2045,24.6603 C73.3155,23.9083 60.1775,28.0603 56.7175,28.4293 C78.1375,1.9363 39.0935,-7.5667 8.9435,8.3013 C-5.9265,16.0963 3.1535,23.7013 7.0425,19.5903 C9.9025,16.5663 6.5255,14.6233 5.3975,13.2363" id="Fill-3" fill="white" mask="url(#mask-2)"></path>
                </g>
            </g>
        </g>
    </g>
</svg>