<?xml version="1.0" encoding="UTF-8"?>
<svg width="248px" height="70px" viewBox="0 0 248 70" version="1.1" xmlns="http://www.w3.org/2000/svg" xmlns:xlink="http://www.w3.org/1999/xlink">
    <!-- Generator: Sketch 51.3 (57544) - http://www.bohemiancoding.com/sketch -->
    <title>logo/color</title>
    <desc>Created with Sketch.</desc>
    <defs>
        <polygon id="path-1" points="0 0.672468798 44.176966 0.672468798 44.176966 69.3607306 0 69.3607306"></polygon>
        <polygon id="path-3" points="0.287861187 0.927306728 34.2758756 0.927306728 34.2758756 40.6527294 0.287861187 40.6527294"></polygon>
        <polygon id="path-5" points="0.910805479 0.670817352 9.34926027 0.670817352 9.34926027 8.72326788 0.910805479 8.72326788"></polygon>
        <polygon id="path-7" points="0.910805479 0.111456621 9.34926027 0.111456621 9.34926027 8.16390715 0.910805479 8.16390715"></polygon>
    </defs>
    <g id="logo/color" stroke="none" stroke-width="1" fill="none" fill-rule="evenodd">
        <g id="Group-41-Copy">
            <g id="Group-3">
                <mask id="mask-2" fill="white">
                    <use xlink:href="#path-1"></use>
                </mask>
                <g id="Clip-2"></g>
                <path d="M42.0010418,58.6960228 C42.0228513,58.5573014 42.0480162,58.4185799 42.0664705,58.2765556 C42.0480162,58.4185799 42.024529,58.5573014 42.0010418,58.6960228 Z M42.113445,57.8224079 C42.1436428,57.4706499 42.1688077,57.1172405 42.1688077,56.7605282 C42.1688077,57.1188919 42.1453205,57.4706499 42.113445,57.8224079 Z M29.3665889,63.4307184 L14.8095383,63.4307184 C11.0717132,63.4307184 8.03179435,60.4382983 8.03179435,56.7605282 L8.03179435,53.5947062 C9.99968882,54.8101705 12.3198918,55.5252466 14.8095383,55.5252466 L29.3665889,55.5252466 C31.8579131,55.5252466 34.1764384,54.8101705 36.1443328,53.5947062 L36.1443328,56.7605282 C36.1443328,60.4382983 33.104414,63.4307184 29.3665889,63.4307184 Z M2.10965669,58.2765556 C2.12811094,58.4185799 2.15327583,58.5573014 2.17508541,58.6960228 C2.15327583,58.5573014 2.12811094,58.4185799 2.10965669,58.2765556 Z M2.06268223,57.8224079 C2.0308067,57.4706499 2.00899712,57.1188919 2.00899712,56.7605282 C2.00899712,57.1172405 2.03248436,57.4706499 2.06268223,57.8224079 Z M2.17508541,11.3391583 C2.15327583,11.4778798 2.12811094,11.6166012 2.11133435,11.7569741 C2.12811094,11.6166012 2.15327583,11.4778798 2.17508541,11.3391583 Z M2.06268223,12.2127732 C2.03248436,12.5628798 2.00899712,12.9146377 2.00899712,13.274653 C2.00899712,12.9146377 2.0308067,12.5612283 2.06268223,12.2127732 Z M36.1443328,42.9230624 C36.1443328,46.6008326 33.104414,49.5949041 29.3665889,49.5949041 L14.8095383,49.5949041 C11.0717132,49.5949041 8.03179435,46.6008326 8.03179435,42.9230624 L8.03179435,27.1104673 C8.03179435,23.4310457 11.0717132,20.4386256 14.8095383,20.4386256 L29.3665889,20.4386256 C33.104414,20.4386256 36.1443328,23.4310457 36.1443328,27.1104673 L36.1443328,42.9230624 Z M14.8095383,6.60281126 L29.3665889,6.60281126 C33.104414,6.60281126 36.1443328,9.59523135 36.1443328,13.274653 L36.1443328,16.4404749 C34.1764384,15.2233592 31.8579131,14.5099346 29.3665889,14.5099346 L14.8095383,14.5099346 C12.3198918,14.5099346 9.99968882,15.2233592 8.03179435,16.4404749 L8.03179435,13.274653 C8.03179435,9.59523135 11.0717132,6.60281126 14.8095383,6.60281126 Z M42.0664705,11.7569741 C42.0480162,11.6166012 42.0228513,11.4778798 42.0010418,11.3391583 C42.024529,11.4778798 42.0480162,11.6166012 42.0664705,11.7569741 Z M42.113445,12.2127732 C42.1453205,12.5612283 42.1688077,12.9146377 42.1688077,13.274653 C42.1688077,12.9146377 42.1436428,12.5628798 42.113445,12.2127732 Z M42.1688077,42.9230624 L42.1688077,27.1104673 L42.1688077,24.2220883 C43.4337629,22.2684277 44.176966,19.9580548 44.176966,17.4742801 C44.176966,14.726274 43.2676746,12.1880015 41.7443599,10.1154368 C40.3149941,4.69373973 35.3155691,0.672468798 29.3665889,0.672468798 L14.8095383,0.672468798 C8.86055809,0.672468798 3.8611331,4.69373973 2.43176729,10.1154368 C0.908452562,12.1880015 -0.000838829697,14.726274 -0.000838829697,17.4742801 C-0.000838829697,19.9580548 0.744041941,22.2684277 2.00899712,24.2220883 L2.00899712,27.1104673 L2.00899712,42.9230624 L2.00899712,45.8114414 C0.744041941,47.765102 -0.000838829697,50.0771263 -0.000838829697,52.5592496 C-0.000838829697,55.3089072 0.908452562,57.8471796 2.43176729,59.9197443 C3.86281076,65.33979 8.86055809,69.3610609 14.8095383,69.3610609 L29.3665889,69.3610609 C35.3155691,69.3610609 40.3149941,65.33979 41.7443599,59.9197443 C43.2676746,57.8471796 44.176966,55.3089072 44.176966,52.5592496 C44.176966,50.0771263 43.4337629,47.765102 42.1688077,45.8114414 L42.1688077,42.9230624 Z" id="Fill-1" fill="#282828" mask="url(#mask-2)"></path>
            </g>
            <path d="M120.824236,13.5661155 C121.807865,14.5364566 122.30137,15.6934018 122.30137,17.036951 L122.30137,61.5980015 C122.30137,62.544003 121.963353,63.3390986 121.2907,63.9849109 C120.616356,64.6323459 119.786525,64.9568747 118.802896,64.9568747 C117.817577,64.9568747 116.975915,64.6323459 116.27622,63.9849109 C115.576525,63.3390986 115.226678,62.544003 115.226678,61.5980015 L115.226678,19.2015582 L97.2678449,61.8203038 C96.8520842,62.7663052 96.204782,63.5257026 95.3242482,64.098496 C94.4420244,64.668044 93.4313541,64.9568747 92.2922374,64.9568747 C91.1514307,64.9568747 90.1407604,64.668044 89.2602267,64.098496 C88.3780028,63.5257026 87.7307006,62.7663052 87.31663,61.8203038 L69.3577969,19.2015582 L69.3577969,61.5980015 C69.3577969,62.544003 69.0079495,63.3390986 68.3082547,63.9849109 C67.6085599,64.6323459 66.7652079,64.9568747 65.781579,64.9568747 C64.79626,64.9568747 63.9664287,64.6323459 63.2937753,63.9849109 C62.6194317,63.3390986 62.283105,62.544003 62.283105,61.5980015 L62.283105,17.036951 C62.283105,15.6934018 62.7749195,14.5364566 63.7602385,13.5661155 C64.7438674,12.5941517 65.9370667,12.1106038 67.3364563,12.1106038 L69.9020039,12.1106038 C70.9380255,12.1106038 71.8844725,12.4091703 72.7396551,13.0046806 C73.5948376,13.6018136 74.2286191,14.3482299 74.6443798,15.245552 L92.2922374,57.4910895 L109.940095,15.245552 C110.354166,14.3482299 110.989637,13.6018136 111.84482,13.0046806 C112.700002,12.4091703 113.644759,12.1106038 114.682471,12.1106038 L117.248019,12.1106038 C118.647408,12.1106038 119.838917,12.5941517 120.824236,13.5661155" id="Fill-4" fill="#282828"></path>
            <path d="M136.861057,26.3130391 C137.507072,25.6535653 138.317025,25.3221715 139.287671,25.3221715 C140.258317,25.3221715 141.066647,25.6535653 141.714286,26.3130391 C142.360301,26.9725128 142.684932,27.8109392 142.684932,28.8283183 L142.684932,61.5269484 C142.684932,62.4929615 142.360301,63.3048764 141.714286,63.9660071 C141.066647,64.6254808 140.258317,64.9568747 139.287671,64.9568747 C138.317025,64.9568747 137.507072,64.6254808 136.861057,63.9660071 C136.213419,63.3048764 135.890411,62.4929615 135.890411,61.5269484 L135.890411,28.8283183 C135.890411,27.8109392 136.213419,26.9725128 136.861057,26.3130391" id="Fill-8" fill="#282828"></path>
            <path d="M181.258287,27.3022497 C181.883724,25.9816452 183.029226,25.3221715 184.698191,25.3221715 C185.530974,25.3221715 186.287277,25.6651641 186.9654,26.3511494 C187.641824,27.0354776 187.981735,27.6833526 187.981735,28.2931173 C187.981735,29.1066891 187.850869,29.8191859 187.590837,30.4272936 L173.987581,62.1350561 C173.622177,62.897262 173.061323,63.5583927 172.306719,64.1167913 C171.550416,64.6768469 170.676844,64.9568747 169.687702,64.9568747 L168.905906,64.9568747 C167.915064,64.9568747 167.041491,64.6768469 166.286888,64.1167913 C165.530585,63.5583927 164.969731,62.897262 164.606026,62.1350561 L151.00277,30.4272936 C150.741038,29.8191859 150.611872,29.1580552 150.611872,28.4455584 C150.611872,27.7347186 150.950084,27.0354776 151.628207,26.3511494 C152.304631,25.6651641 153.060934,25.3221715 153.895417,25.3221715 C155.562682,25.3221715 156.709883,25.9816452 157.33532,27.3022497 L169.296804,56.8758359 L181.258287,27.3022497 Z" id="Fill-10" fill="#282828"></path>
            <path d="M196.879322,26.3130391 C197.525337,25.6535653 198.33529,25.3221715 199.305936,25.3221715 C200.276582,25.3221715 201.084912,25.6535653 201.732551,26.3130391 C202.378566,26.9725128 202.703196,27.8109392 202.703196,28.8283183 L202.703196,61.5269484 C202.703196,62.4929615 202.378566,63.3048764 201.732551,63.9660071 C201.084912,64.6254808 200.276582,64.9568747 199.305936,64.9568747 C198.33529,64.9568747 197.525337,64.6254808 196.879322,63.9660071 C196.231683,63.3048764 195.908676,62.4929615 195.908676,61.5269484 L195.908676,28.8283183 C195.908676,27.8109392 196.231683,26.9725128 196.879322,26.3130391" id="Fill-14" fill="#282828"></path>
            <g id="Group-18" transform="translate(212.894977, 24.221208)">
                <mask id="mask-4" fill="white">
                    <use xlink:href="#path-3"></use>
                </mask>
                <g id="Clip-17"></g>
                <path d="M7.2854624,28.6601489 C7.2854624,32.658762 10.0019225,34.6580686 15.4365144,34.6580686 C17.8453876,34.6580686 20.0887657,34.082881 22.1649771,32.9325057 C24.2411884,31.7837599 25.9446179,30.4851068 27.2786087,29.0349171 L27.2786087,22.7388124 L18.8968666,22.7388124 C15.2559743,22.7388124 12.4107957,23.1901636 10.3613311,24.0879777 C8.31019474,24.9874212 7.2854624,26.514194 7.2854624,28.6601489 M4.90166419,3.62726675 C9.20788032,1.82675026 13.6678899,0.927306728 18.2816929,0.927306728 C23.5106696,0.927306728 27.5594489,2.47852093 30.4313741,5.57443164 C32.9940408,8.27276223 34.27621,11.6473049 34.27621,15.6931714 L34.27621,36.9066774 C34.27621,37.8566332 33.9301747,38.6550522 33.2381043,39.3035641 C32.5460338,39.9537053 31.7118716,40.2795906 30.738961,40.2795906 C29.7643787,40.2795906 28.9435898,39.9537053 28.2782661,39.3035641 C27.6112706,38.6550522 27.2786087,37.8566332 27.2786087,36.9066774 L27.2786087,34.9562537 C25.8944678,36.3575606 24.0355733,37.6562137 21.7035968,38.8554717 C19.3699486,40.0531003 16.409425,40.6527294 12.822026,40.6527294 C9.28477704,40.6527294 6.33595512,39.6538908 3.97890359,37.6562137 C1.51820865,35.5558827 0.287861187,32.8086693 0.287861187,29.4096852 C0.287861187,25.7125161 1.72215212,22.813766 4.59407732,20.7150644 C7.72009602,18.4175728 12.1801056,17.268827 17.974106,17.268827 L27.2786087,17.268827 L27.2786087,16.669198 C27.2786087,13.3207261 26.4327449,10.933616 24.7410171,9.50949709 C23.0492893,8.08537816 20.459876,7.37494813 16.9744487,7.37494813 C14.0005518,7.37494813 10.5920212,7.97457715 6.74718539,9.17220576 C6.33595512,9.27485964 5.87457482,9.32374245 5.36304449,9.32374245 C4.84984249,9.32374245 4.31156547,9.06140475 3.74821344,8.53509993 C3.18318974,8.01042454 2.90234955,7.19897005 2.90234955,6.09910703 C2.90234955,5.00087344 3.56767332,4.17801297 4.90166419,3.62726675" id="Fill-16" fill="#282828" mask="url(#mask-4)"></path>
            </g>
            <path d="M71.3424658,15.008424 C71.3424658,16.0278769 70.9754778,16.8987584 70.2415018,17.6258101 C69.5075258,18.3528618 68.6267546,18.7163876 67.5991882,18.7163876 L67.1588026,18.7163876 C66.1312363,18.7163876 65.2504651,18.3528618 64.5164891,17.6258101 C63.7825131,16.8987584 63.4155251,16.0278769 63.4155251,15.008424 L63.4155251,14.7176034 C63.4155251,13.699731 63.7825131,12.827269 64.5164891,12.1002173 C65.2504651,11.3731656 66.1312363,11.0096398 67.1588026,11.0096398 L67.5991882,11.0096398 C68.6267546,11.0096398 69.5075258,11.3731656 70.2415018,12.1002173 C70.9754778,12.827269 71.3424658,13.699731 71.3424658,14.7176034 L71.3424658,15.008424 Z" id="Fill-19" fill="#25BA54"></path>
            <path d="M7.92694064,19.4122799 C7.92694064,20.4317328 7.55995265,21.3026143 6.82597666,22.029666 C6.09200068,22.7567177 5.21122949,23.1202435 4.18366312,23.1202435 L3.74327752,23.1202435 C2.71571114,23.1202435 1.83493996,22.7567177 1.10096398,22.029666 C0.366987993,21.3026143 0,20.4317328 0,19.4122799 L0,19.1214593 C0,18.1035869 0.366987993,17.2311249 1.10096398,16.5040732 C1.83493996,15.7770215 2.71571114,15.4134957 3.74327752,15.4134957 L4.18366312,15.4134957 C5.21122949,15.4134957 6.09200068,15.7770215 6.82597666,16.5040732 C7.55995265,17.2311249 7.92694064,18.1035869 7.92694064,19.1214593 L7.92694064,19.4122799 Z" id="Fill-21" fill="#25BA54"></path>
            <path d="M7.92694064,49.1383073 C7.92694064,50.1577602 7.55995265,51.0286417 6.82597666,51.7556934 C6.09200068,52.4827451 5.21122949,52.8462709 4.18366312,52.8462709 L3.74327752,52.8462709 C2.71571114,52.8462709 1.83493996,52.4827451 1.10096398,51.7556934 C0.366987993,51.0286417 0,50.1577602 0,49.1383073 L0,48.8474867 C0,47.8296143 0.366987993,46.9571523 1.10096398,46.2301006 C1.83493996,45.5030489 2.71571114,45.1395231 3.74327752,45.1395231 L4.18366312,45.1395231 C5.21122949,45.1395231 6.09200068,45.5030489 6.82597666,46.2301006 C7.55995265,46.9571523 7.92694064,47.8296143 7.92694064,48.8474867 L7.92694064,49.1383073 Z" id="Fill-23" fill="#25BA54"></path>
            <path d="M41.8995434,19.4122799 C41.8995434,20.4317328 41.5325554,21.3026143 40.7985794,22.029666 C40.0646034,22.7567177 39.1838322,23.1202435 38.1562659,23.1202435 L37.7158803,23.1202435 C36.6883139,23.1202435 35.8075427,22.7567177 35.0735667,22.029666 C34.3395907,21.3026143 33.9726027,20.4317328 33.9726027,19.4122799 L33.9726027,19.1214593 C33.9726027,18.1035869 34.3395907,17.2311249 35.0735667,16.5040732 C35.8075427,15.7770215 36.6883139,15.4134957 37.7158803,15.4134957 L38.1562659,15.4134957 C39.1838322,15.4134957 40.0646034,15.7770215 40.7985794,16.5040732 C41.5325554,17.2311249 41.8995434,18.1035869 41.8995434,19.1214593 L41.8995434,19.4122799 Z" id="Fill-25" fill="#25BA54"></path>
            <path d="M41.8995434,49.1383073 C41.8995434,50.1577602 41.5325554,51.0286417 40.7985794,51.7556934 C40.0646034,52.4827451 39.1838322,52.8462709 38.1562659,52.8462709 L37.7158803,52.8462709 C36.6883139,52.8462709 35.8075427,52.4827451 35.0735667,51.7556934 C34.3395907,51.0286417 33.9726027,50.1577602 33.9726027,49.1383073 L33.9726027,48.8474867 C33.9726027,47.8296143 34.3395907,46.9571523 35.0735667,46.2301006 C35.8075427,45.5030489 36.6883139,45.1395231 37.7158803,45.1395231 L38.1562659,45.1395231 C39.1838322,45.1395231 40.0646034,45.5030489 40.7985794,46.2301006 C41.5325554,46.9571523 41.8995434,47.8296143 41.8995434,48.8474867 L41.8995434,49.1383073 Z" id="Fill-27" fill="#25BA54"></path>
            <path d="M96.2557078,61.2489111 C96.2557078,62.268364 95.8903154,63.1392455 95.1563394,63.8662972 C94.4223634,64.5933488 93.5399966,64.9568747 92.5124302,64.9568747 L92.0720446,64.9568747 C91.0444783,64.9568747 90.1653027,64.5933488 89.4313267,63.8662972 C88.6973507,63.1392455 88.3287671,62.268364 88.3287671,61.2489111 L88.3287671,60.9580904 C88.3287671,59.9402181 88.6973507,59.067756 89.4313267,58.3407044 C90.1653027,57.6136527 91.0444783,57.2501268 92.0720446,57.2501268 L92.5124302,57.2501268 C93.5399966,57.2501268 94.4223634,57.6136527 95.1563394,58.3407044 C95.8903154,59.067756 96.2557078,59.9402181 96.2557078,60.9580904 L96.2557078,61.2489111 Z" id="Fill-29" fill="#25BA54"></path>
            <g id="Group-33" transform="translate(237.808219, 52.846271)">
                <mask id="mask-6" fill="white">
                    <use xlink:href="#path-5"></use>
                </mask>
                <g id="Clip-32"></g>
                <path d="M9.3496,4.84897565 C9.3496,5.9141583 8.95891507,6.82410502 8.17754521,7.58377017 C7.39617534,8.34343531 6.45853151,8.72326788 5.3646137,8.72326788 L4.89579178,8.72326788 C3.80187397,8.72326788 2.86423014,8.34343531 2.08286027,7.58377017 C1.30149041,6.82410502 0.910805479,5.9141583 0.910805479,4.84897565 L0.910805479,4.54510959 C0.910805479,3.48157839 1.30149041,2.56998021 2.08286027,1.81031507 C2.86423014,1.05064992 3.80187397,0.670817352 4.89579178,0.670817352 L5.3646137,0.670817352 C6.45853151,0.670817352 7.39617534,1.05064992 8.17754521,1.81031507 C8.95891507,2.56998021 9.3496,3.48157839 9.3496,4.54510959 L9.3496,4.84897565 Z" id="Fill-31" fill="#25BA54" mask="url(#mask-6)"></path>
            </g>
            <g id="Group-36" transform="translate(237.808219, 40.606925)">
                <mask id="mask-8" fill="white">
                    <use xlink:href="#path-7"></use>
                </mask>
                <g id="Clip-35"></g>
                <path d="M9.3496,4.28961492 C9.3496,5.35479756 8.95891507,6.26474429 8.17754521,7.02440944 C7.39617534,7.78407458 6.45853151,8.16390715 5.3646137,8.16390715 L4.89579178,8.16390715 C3.80187397,8.16390715 2.86423014,7.78407458 2.08286027,7.02440944 C1.30149041,6.26474429 0.910805479,5.35479756 0.910805479,4.28961492 L0.910805479,3.98574886 C0.910805479,2.92221766 1.30149041,2.01061948 2.08286027,1.25095434 C2.86423014,0.491289193 3.80187397,0.111456621 4.89579178,0.111456621 L5.3646137,0.111456621 C6.45853151,0.111456621 7.39617534,0.491289193 8.17754521,1.25095434 C8.95891507,2.01061948 9.3496,2.92221766 9.3496,3.98574886 L9.3496,4.28961492 Z" id="Fill-34" fill="#25BA54" mask="url(#mask-8)"></path>
            </g>
            <path d="M173.260274,61.2489111 C173.260274,62.268364 172.893286,63.1392455 172.15931,63.8662972 C171.425334,64.5933488 170.544563,64.9568747 169.516996,64.9568747 L169.076611,64.9568747 C168.049044,64.9568747 167.168273,64.5933488 166.434297,63.8662972 C165.700321,63.1392455 165.333333,62.268364 165.333333,61.2489111 L165.333333,60.9580904 C165.333333,59.9402181 165.700321,59.067756 166.434297,58.3407044 C167.168273,57.6136527 168.049044,57.2501268 169.076611,57.2501268 L169.516996,57.2501268 C170.544563,57.2501268 171.425334,57.6136527 172.15931,58.3407044 C172.893286,59.067756 173.260274,59.9402181 173.260274,60.9580904 L173.260274,61.2489111 Z" id="Fill-37" fill="#25BA54"></path>
            <path d="M118.90411,15.008424 C118.90411,16.0278769 118.537122,16.8987584 117.803146,17.6258101 C117.06917,18.3528618 116.188398,18.7163876 115.160832,18.7163876 L114.720446,18.7163876 C113.69288,18.7163876 112.812109,18.3528618 112.078133,17.6258101 C111.344157,16.8987584 110.977169,16.0278769 110.977169,15.008424 L110.977169,14.7176034 C110.977169,13.699731 111.344157,12.827269 112.078133,12.1002173 C112.812109,11.3731656 113.69288,11.0096398 114.720446,11.0096398 L115.160832,11.0096398 C116.188398,11.0096398 117.06917,11.3731656 117.803146,12.1002173 C118.537122,12.827269 118.90411,13.699731 118.90411,14.7176034 L118.90411,15.008424 Z" id="Fill-39" fill="#25BA54"></path>
        </g>
        <path d="M143.115942,14.211102 C143.115942,15.2846833 142.740204,16.2018048 141.988728,16.9674597 C141.237252,17.7331146 140.33548,18.115942 139.283414,18.115942 L138.832528,18.115942 C137.780462,18.115942 136.87869,17.7331146 136.127214,16.9674597 C135.375738,16.2018048 135,15.2846833 135,14.211102 L135,13.90484 C135,12.8329232 135.375738,11.9141373 136.127214,11.1484824 C136.87869,10.3828275 137.780462,10 138.832528,10 L139.283414,10 C140.33548,10 141.237252,10.3828275 141.988728,11.1484824 C142.740204,11.9141373 143.115942,12.8329232 143.115942,13.90484 L143.115942,14.211102 Z" id="Fill-12-Copy" fill="#25BA54"></path>
        <path d="M197.939977,10.5037581 L203.612223,6.72295214 C204.257716,6.24098405 204.997818,6 205.832528,6 L206.283414,6 C207.33548,6 208.237252,6.38282745 208.988728,7.14848236 C209.740204,7.91413727 210.115942,8.83292316 210.115942,9.90484003 L210.115942,10.211102 C210.115942,11.2846833 209.740204,12.2018048 208.988728,12.9674597 C208.670417,13.2917764 208.32514,13.547406 207.952897,13.7343484 L202.692114,17.2432122 C202.003423,17.8250321 201.200523,18.115942 200.283414,18.115942 L199.832528,18.115942 C198.780462,18.115942 197.87869,17.7331146 197.127214,16.9674597 C196.375738,16.2018048 196,15.2846833 196,14.211102 L196,13.90484 C196,12.8329232 196.375738,11.9141373 197.127214,11.1484824 C197.380994,10.8899138 197.651915,10.6750057 197.939977,10.5037581 Z" id="Combined-Shape" fill="#25BA54"></path>
    </g>
</svg>