<?xml version="1.0" encoding="UTF-8"?>
<svg width="156px" height="120px" viewBox="0 0 156 120" version="1.1" xmlns="http://www.w3.org/2000/svg" xmlns:xlink="http://www.w3.org/1999/xlink">
    <!-- Generator: Sketch 51.3 (57544) - http://www.bohemiancoding.com/sketch -->
    <title>logo/logo-2</title>
    <desc>Created with Sketch.</desc>
    <defs></defs>
    <g id="logo/logo-2" stroke="none" stroke-width="1" fill="none" fill-rule="evenodd">
        <g id="Logo-Copy-2">
            <path d="M57.8672481,56 C57.6457214,56 57.4236633,55.9170683 57.254198,55.7506834 C56.9152673,55.4184351 56.9152673,54.8796399 57.254198,54.5463484 L88.1627621,24.2001333 C86.6009186,22.1117153 86.3480487,18.8262646 87.4641824,14.8205079 C88.488943,11.147521 90.5618387,7.38742985 92.7462946,5.2437241 C94.8765641,3.15217664 97.7086008,2 100.721259,2 C103.733917,2 106.565953,3.15217664 108.696223,5.2437241 C110.826492,7.33527156 112,10.1163516 112,13.0737267 C112,16.0316234 110.826492,18.8127034 108.696223,20.9042509 C106.105369,23.4474892 101.346527,25.7476698 97.1237063,26.4971844 C96.6493096,26.5759434 96.2009437,26.2723822 96.1159454,25.8102597 C96.0304159,25.3476157 96.343847,24.9042702 96.8150563,24.8202954 C100.661229,24.1385865 105.142232,21.9844491 107.470123,19.699916 C109.272086,17.9296636 110.264972,15.5768031 110.264972,13.0737267 C110.264972,10.5711719 109.272618,8.21778984 107.470123,6.44805904 C105.667096,4.67832823 103.270676,3.70348978 100.721259,3.70348978 C98.1718414,3.70348978 95.7748898,4.67832823 93.9723949,6.44805904 C92.0169031,8.36800572 90.0736298,11.9132047 89.1375861,15.2706339 C88.0846699,19.0479373 88.3826951,22.0991973 89.9556946,23.6436043 C90.1182539,23.8032087 90.209627,24.0196656 90.209627,24.2460326 C90.209627,24.471878 90.1182539,24.6883349 89.9556946,24.8479393 L58.4802983,55.7506834 C58.3108329,55.9170683 58.0893062,56 57.8672481,56" id="Fill-1" fill="#FC5130"></path>
            <path d="M73.47173,26 C71.1934039,26 69.0517124,25.1465557 67.4413772,23.5976352 L56.2590362,12.846427 C55.9136546,12.5138079 55.9136546,11.9752569 56.2590362,11.6426378 C56.6049601,11.3100187 57.1650531,11.3100187 57.510977,11.6426378 L68.6933179,22.393846 C69.9696576,23.6216171 71.6667449,24.2978036 73.47173,24.2978036 C75.2767151,24.2978036 76.9738023,23.6216171 78.2501421,22.393846 C79.5264818,21.1671176 80.2297157,19.535303 80.2297157,17.7997404 C80.2297157,16.0641778 79.5264818,14.4323631 78.2501421,13.204592 L67.0683433,2.45286245 C66.7229617,2.12024336 66.7229617,1.5816924 67.0683433,1.24907331 C67.4148094,0.916975564 67.9749024,0.916975564 68.3208262,1.24907331 L79.5020828,12.0008029 C81.1129602,13.5497234 82,15.6090422 82,17.7997404 C82,19.9899172 81.1129602,22.049236 79.5020828,23.5976352 C77.8912054,25.1465557 75.7495138,26 73.47173,26" id="Fill-3" fill="#FC5130"></path>
            <path d="M75.1529538,20 C74.9360685,20 74.719702,19.9169863 74.5541843,19.7514778 L62.2482766,7.44625419 C61.9172411,7.11523709 61.9172411,6.57927993 62.2482766,6.24826283 C62.5793121,5.91724572 63.1152991,5.91724572 63.4463346,6.24826283 L75.7517234,18.5540052 C76.0827589,18.8850223 76.0827589,19.4209795 75.7517234,19.7514778 C75.5862056,19.9169863 75.3693203,20 75.1529538,20" id="Fill-5" fill="#FC5130"></path>
            <path d="M113.102555,58 C112.873455,58 112.643806,57.912644 112.468547,57.7373827 L96.262888,41.5309271 C95.9123707,41.1809538 95.9123707,40.6134147 96.262888,40.262892 C96.612856,39.9123693 97.1809358,39.9123693 97.5309038,40.262892 L113.737112,56.4687982 C114.087629,56.8193209 114.087629,57.3874094 113.737112,57.7373827 C113.561853,57.912644 113.332204,58 113.102555,58" id="Fill-7" fill="#FC5130"></path>
            <path d="M93,39 C92.7403552,39 92.480098,38.8890601 92.2902633,38.6973806 C92.1004287,38.5167951 92,38.25547 92,37.9935285 C92,37.7309707 92.1004287,37.4702619 92.2902633,37.2791988 C92.6601347,36.9069337 93.3300674,36.9069337 93.7005511,37.2791988 C93.8903858,37.4702619 94,37.7309707 94,37.9935285 C94,38.25547 93.8903858,38.5167951 93.7005511,38.7078582 C93.519902,38.8890601 93.2602572,39 93,39" id="Fill-9" fill="#FC5130"></path>
            <path d="M89.1584634,35 C88.9429888,35 88.7280297,34.9180396 88.5635886,34.7530879 L77.2470483,23.4363687 C76.9176506,23.1080117 76.9176506,22.5750114 77.2470483,22.2466544 C77.5754151,21.9177819 78.1079157,21.9177819 78.436798,22.2466544 L89.7533383,33.5633736 C90.0822206,33.8922461 90.0822206,34.4247309 89.7533383,34.7530879 C89.5888971,34.9180396 89.3734226,35 89.1584634,35" id="Fill-11" fill="#FC5130"></path>
            <path d="M33.2774215,0.0201418182 L0.413544615,0.0201418182 C0.18496,0.0201418182 -0.000209230769,0.206796364 -0.000209230769,0.437214545 L-0.000209230769,57.1343236 C-0.000209230769,57.3642145 0.18496,57.5513964 0.413544615,57.5513964 L1.37809846,57.5513964 C1.60668308,57.5513964 1.79185231,57.3642145 1.79185231,57.1343236 L1.79185231,30.0124691 L29.2596677,30.0124691 C29.4882523,30.0124691 29.6734215,29.8263418 29.6734215,29.5953964 L29.6734215,28.7048327 C29.6734215,28.4744145 29.4882523,28.28776 29.2596677,28.28776 L1.79185231,28.28776 L1.79185231,1.74485091 L33.2774215,1.74485091 C33.5060062,1.74485091 33.6911754,1.55819636 33.6911754,1.32830545 L33.6911754,0.437214545 C33.6911754,0.206796364 33.5060062,0.0201418182 33.2774215,0.0201418182" id="Fill-13" fill="#30BCED"></path>
            <path d="M46.5381022,0 L45.4613139,0 C45.2067153,0 45,0.188175344 45,0.420470897 L45,57.5795291 C45,57.8112931 45.2067153,58 45.4613139,58 L46.5381022,58 C46.7932847,58 47,57.8112931 47,57.5795291 L47,0.420470897 C47,0.188175344 46.7932847,0 46.5381022,0" id="Fill-16" fill="#30BCED"></path>
            <path d="M155.89074,56.3978517 C155.812273,56.3106745 155.70063,56.260707 155.583193,56.260707 L123.803153,56.260707 L123.803153,29.4202051 L150.648748,29.4202051 C150.878355,29.4202051 151.065305,29.2320298 151.065305,28.9997342 L151.065305,28.1019146 C151.065305,27.869619 150.878355,27.6814437 150.648748,27.6814437 L123.803153,27.6814437 L123.803153,1.73876144 L155.50262,1.73876144 C155.732227,1.73876144 155.919178,1.5505861 155.919178,1.31882212 L155.919178,0.420470897 C155.919178,0.188175344 155.732227,0 155.50262,0 L122.416031,0 C122.185897,0 122,0.188175344 122,0.420470897 L122,57.5795291 C122,57.8112931 122.185897,58 122.416031,58 L155.50262,58 C155.718008,58 155.898113,57.833619 155.917071,57.6172705 L155.998171,56.7189193 C156.00923,56.6014426 155.969733,56.485029 155.89074,56.3978517" id="Fill-18" fill="#30BCED"></path>
        </g>
        <path d="M62.5052187,82.660742 C59.6945966,79.3377437 57.8595237,74.6174964 57,68.5 C60.8359375,71.4557292 66.8390299,72.9335938 75.0092773,72.9335938 C76.1094098,72.9335938 77.1702498,73.0327412 78.1917973,73.2310362 C79.2726565,73.0787528 80.3771314,73 81.5,73 L128.5,73 C141.478692,73 152,83.5213084 152,96.5 C152,109.478692 141.478692,120 128.5,120 L81.5,120 C68.5213084,120 58,109.478692 58,96.5 C58,91.3261021 59.6720284,86.5427273 62.5052187,82.660742 Z" id="Combined-Shape" fill="#FC5130"></path>
        <path d="" id="Path-2" stroke="#979797"></path>
        <path d="M75.0756836,106 L75.0756836,93.4189453 L72.0922852,93.4189453 L72.0922852,91.78125 L75.0756836,91.78125 L75.0756836,86.7539062 L76.9038086,86.7539062 L76.9038086,91.78125 L80.3061523,91.78125 L80.3061523,93.4189453 L76.9038086,93.4189453 L76.9038086,106 L75.0756836,106 Z M81.6264648,98.9794922 C81.6264648,97.9130806 81.8211244,96.9228561 82.2104492,96.0087891 C82.5997741,95.094722 83.116045,94.3160839 83.7592773,93.6728516 C84.4025097,93.0296192 85.1134401,92.5218118 85.8920898,92.1494141 C86.8992563,91.6585262 87.9571885,91.4130859 89.065918,91.4130859 C90.3354556,91.4130859 91.5563092,91.7452766 92.7285156,92.409668 C93.900722,93.0740593 94.821123,94.0029237 95.4897461,95.1962891 C96.1583692,96.3896544 96.4926758,97.6168557 96.4926758,98.8779297 C96.4926758,100.139004 96.1604851,101.366205 95.4960938,102.55957 C94.8317024,103.752936 93.9134173,104.6818 92.7412109,105.346191 C91.5690046,106.010583 90.3396874,106.342773 89.0532227,106.342773 C88.1391556,106.342773 87.2653036,106.181968 86.4316406,105.860352 C85.5979776,105.538735 84.859541,105.092288 84.2163086,104.520996 C83.5730762,103.949704 83.0737322,103.367842 82.7182617,102.775391 C82.3627912,102.18294 82.0919606,101.562992 81.9057617,100.915527 C81.7195629,100.268063 81.6264648,99.6227246 81.6264648,98.9794922 Z M83.4418945,98.9541016 C83.4418945,99.9443409 83.6852189,100.890132 84.171875,101.791504 C84.6585311,102.692876 85.3567663,103.403806 86.2666016,103.924316 C87.1764368,104.444827 88.109533,104.705078 89.065918,104.705078 C90.022303,104.705078 90.9448198,104.45329 91.8334961,103.949707 C92.7221724,103.446124 93.4182918,102.737309 93.921875,101.823242 C94.4254582,100.909175 94.6772461,99.9147189 94.6772461,98.8398438 C94.6772461,97.7480414 94.4212265,96.7599328 93.9091797,95.8754883 C93.3971329,94.9910438 92.6862025,94.2991561 91.7763672,93.7998047 C90.8665319,93.3004532 89.9588261,93.0507812 89.0532227,93.0507812 C88.1391556,93.0507812 87.2229864,93.3110326 86.3046875,93.831543 C85.3863886,94.3520534 84.67969,95.0693314 84.1845703,95.9833984 C83.6894506,96.8974655 83.4418945,97.88769 83.4418945,98.9541016 Z M118.696777,91.78125 L120.512207,91.78125 L120.512207,103.765625 C120.512207,104.908209 120.444499,105.834957 120.309082,106.545898 C120.165201,107.256839 119.896486,107.921221 119.50293,108.539062 C119.109373,109.156904 118.618493,109.694334 118.030273,110.151367 C117.442054,110.608401 116.781905,110.96175 116.049805,111.211426 C115.317705,111.461102 114.51156,111.585938 113.631348,111.585938 C112.5734,111.585938 111.578943,111.416668 110.647949,111.078125 C109.716955,110.739582 108.912927,110.257165 108.23584,109.630859 C107.711098,109.148435 107.283693,108.615237 106.953613,108.03125 C106.725097,107.616534 106.505047,107.062178 106.293457,106.368164 L108.223145,106.368164 C108.73096,107.561529 109.446122,108.45654 110.368652,109.053223 C111.291183,109.649905 112.353347,109.948242 113.555176,109.948242 C114.426925,109.948242 115.205563,109.789552 115.891113,109.472168 C116.576664,109.154784 117.120441,108.761233 117.522461,108.291504 C117.924481,107.821775 118.235513,107.244144 118.455566,106.558594 C118.616375,106.059242 118.696777,105.424483 118.696777,104.654297 L118.696777,103.397461 L118.645996,103.397461 C118.23128,104.040693 117.833498,104.527342 117.452637,104.857422 C116.919431,105.322919 116.288903,105.686848 115.561035,105.949219 C114.833167,106.21159 114.054529,106.342773 113.225098,106.342773 C111.930169,106.342773 110.683925,106.01693 109.486328,105.365234 C108.288731,104.713538 107.361982,103.814296 106.706055,102.66748 C106.050127,101.520665 105.722168,100.278653 105.722168,98.9414062 C105.722168,97.8242132 105.925291,96.8149459 106.331543,95.9135742 C106.737795,95.0122025 107.249834,94.256839 107.867676,93.6474609 C108.485517,93.0380829 109.162594,92.5514341 109.898926,92.1875 C110.94841,91.6712214 112.035964,91.4130859 113.161621,91.4130859 C113.982589,91.4130859 114.761227,91.5485013 115.497559,91.8193359 C116.23389,92.0901706 116.872881,92.4540993 117.414551,92.9111328 C117.820803,93.2581398 118.23128,93.7278616 118.645996,94.3203125 L118.696777,94.3203125 L118.696777,91.78125 Z M107.537598,98.9033203 C107.537598,99.9020232 107.780922,100.858394 108.267578,101.772461 C108.754234,102.686528 109.44189,103.403806 110.330566,103.924316 C111.219243,104.444827 112.16715,104.705078 113.174316,104.705078 C114.189946,104.705078 115.131506,104.446943 115.999023,103.930664 C116.866541,103.414385 117.549965,102.680181 118.049316,101.728027 C118.548668,100.775874 118.79834,99.8173876 118.79834,98.8525391 C118.79834,97.8707633 118.544436,96.9143927 118.036621,95.9833984 C117.528806,95.0524042 116.832687,94.3308945 115.948242,93.8188477 C115.063798,93.3068008 114.130702,93.0507812 113.148926,93.0507812 C112.302567,93.0507812 111.545088,93.2158187 110.876465,93.5458984 C110.207842,93.8759782 109.623863,94.3012669 109.124512,94.8217773 C108.62516,95.3422878 108.235841,95.9643519 107.956543,96.6879883 C107.677245,97.4116247 107.537598,98.1500613 107.537598,98.9033203 Z M123.343262,98.9794922 C123.343262,97.9130806 123.537921,96.9228561 123.927246,96.0087891 C124.316571,95.094722 124.832842,94.3160839 125.476074,93.6728516 C126.119307,93.0296192 126.830237,92.5218118 127.608887,92.1494141 C128.616053,91.6585262 129.673985,91.4130859 130.782715,91.4130859 C132.052252,91.4130859 133.273106,91.7452766 134.445312,92.409668 C135.617519,93.0740593 136.53792,94.0029237 137.206543,95.1962891 C137.875166,96.3896544 138.209473,97.6168557 138.209473,98.8779297 C138.209473,100.139004 137.877282,101.366205 137.212891,102.55957 C136.548499,103.752936 135.630214,104.6818 134.458008,105.346191 C133.285801,106.010583 132.056484,106.342773 130.77002,106.342773 C129.855952,106.342773 128.982101,106.181968 128.148438,105.860352 C127.314774,105.538735 126.576338,105.092288 125.933105,104.520996 C125.289873,103.949704 124.790529,103.367842 124.435059,102.775391 C124.079588,102.18294 123.808757,101.562992 123.622559,100.915527 C123.43636,100.268063 123.343262,99.6227246 123.343262,98.9794922 Z M125.158691,98.9541016 C125.158691,99.9443409 125.402016,100.890132 125.888672,101.791504 C126.375328,102.692876 127.073563,103.403806 127.983398,103.924316 C128.893234,104.444827 129.82633,104.705078 130.782715,104.705078 C131.7391,104.705078 132.661617,104.45329 133.550293,103.949707 C134.438969,103.446124 135.135089,102.737309 135.638672,101.823242 C136.142255,100.909175 136.394043,99.9147189 136.394043,98.8398438 C136.394043,97.7480414 136.138023,96.7599328 135.625977,95.8754883 C135.11393,94.9910438 134.402999,94.2991561 133.493164,93.7998047 C132.583329,93.3004532 131.675623,93.0507812 130.77002,93.0507812 C129.855952,93.0507812 128.939783,93.3110326 128.021484,93.831543 C127.103186,94.3520534 126.396487,95.0693314 125.901367,95.9833984 C125.406248,96.8974655 125.158691,97.88769 125.158691,98.9541016 Z" id="to-go" fill="#FFFFFF"></path>
    </g>
</svg>